/* XPM */
static char *xpm____[] = {
/* columns rows colors chars-per-pixel */
"48 48 198 2",
"   c #024A9A",
".  c #195C97",
"X  c #0154A2",
"o  c #015CA9",
"O  c #0958A9",
"+  c #0060AD",
"@  c #0065B2",
"#  c #0069B6",
"$  c #126CB8",
"%  c #0071BE",
"&  c #0B71BC",
"*  c #1A73BF",
"=  c #387AB2",
"-  c #327DBD",
";  c #387CB8",
":  c #136DC1",
">  c #0576C1",
",  c #007BC7",
"<  c #0B7AC5",
"1  c #007CC9",
"2  c #187BC5",
"3  c #117ECB",
"4  c #1D7BCA",
"5  c #197CD2",
"6  c #207ACA",
"7  c #237FD1",
"8  c #0081CD",
"9  c #0A83CD",
"0  c #1287CF",
"q  c #0085D1",
"w  c #0D86D0",
"e  c #088DD7",
"r  c #008FDA",
"t  c #1D82D7",
"y  c #1D83DC",
"u  c #0091DC",
"i  c #0C91D9",
"p  c #1E93D8",
"a  c #1A99DE",
"s  c #2386CE",
"d  c #3784C5",
"f  c #2489D0",
"g  c #2D8CD5",
"h  c #2287DA",
"j  c #2388DE",
"k  c #2B8DDD",
"l  c #308FDA",
"z  c #2C93DF",
"x  c #239BDF",
"c  c #3493DE",
"v  c #3A97DD",
"b  c #329ADB",
"n  c #3C99DE",
"m  c #1E85E0",
"M  c #1E89E6",
"N  c #0397E2",
"B  c #0C9BE5",
"V  c #159CE2",
"C  c #1C9EE3",
"Z  c #248BE4",
"A  c #2A8EE3",
"S  c #268EE9",
"D  c #288FEB",
"F  c #2D91E3",
"G  c #2790ED",
"H  c #2B92EC",
"J  c #3394E2",
"K  c #3897E1",
"L  c #349CE4",
"P  c #3C9AE2",
"I  c #3296EC",
"U  c #3699ED",
"Y  c #3C9BEC",
"T  c #218FF0",
"R  c #2593F3",
"E  c #2D95F1",
"W  c #2D9AFA",
"Q  c #3097F1",
"!  c #3499F2",
"~  c #3C9CF1",
"^  c #329EFC",
"/  c #1CA0E6",
"(  c #24A3E8",
")  c #2DABEB",
"_  c #3FA2E2",
"`  c #36ABEA",
"'  c #3BABEB",
"]  c #3FA0F3",
"[  c #36A0FD",
"{  c #3BA3FE",
"}  c #429CDF",
"|  c #49A0DF",
" . c #439EE2",
".. c #499FE6",
"X. c #429EEC",
"o. c #429FF1",
"O. c #46A1E5",
"+. c #4CA4E5",
"@. c #4DA8E6",
"#. c #45A1EA",
"$. c #4CA4EA",
"%. c #4FACEC",
"&. c #52A6E4",
"*. c #54A9E5",
"=. c #5BACE5",
"-. c #52A5EA",
";. c #5CA6E9",
":. c #56AAEA",
">. c #5AADE9",
",. c #45B5EF",
"<. c #4DB4EF",
"1. c #5DB0E7",
"2. c #51B6EE",
"3. c #5EB0E8",
"4. c #45A1F2",
"5. c #4BA4F2",
"6. c #43A6FE",
"7. c #43A8FF",
"8. c #51A7F2",
"9. c #54A9F3",
"0. c #5BADF4",
"q. c #51ADFD",
"w. c #5ABCF0",
"e. c #54B1FF",
"r. c #5CB6FF",
"t. c #63AEE5",
"y. c #62A5EB",
"u. c #61ACE8",
"i. c #69A9ED",
"p. c #73AEEE",
"a. c #63B2E6",
"s. c #6AB5E6",
"d. c #6FB8E7",
"f. c #62B2E8",
"g. c #6BB4E9",
"h. c #6EB9E8",
"j. c #71B7E5",
"k. c #70B8E7",
"l. c #78BAE6",
"z. c #71B5EB",
"x. c #73BBE9",
"c. c #7ABDEB",
"v. c #60B0F5",
"b. c #65BEF3",
"n. c #63B4FB",
"m. c #67BBFF",
"M. c #78BAF0",
"N. c #7BC0EA",
"B. c #6DC2F3",
"V. c #72C5F4",
"C. c #7CC7F6",
"Z. c #83BBED",
"A. c #8ABDED",
"S. c #84BFF0",
"D. c #93BFF1",
"F. c #86C1ED",
"G. c #8BC1ED",
"H. c #9FC6EF",
"J. c #92C9ED",
"K. c #9ECDED",
"L. c #8DC5F1",
"P. c #80C8F7",
"I. c #82C9F8",
"U. c #89CBF8",
"Y. c #99C3F1",
"T. c #94C9F3",
"R. c #9FCDF3",
"E. c #94CFFB",
"W. c #99D2FC",
"Q. c #ABCDF3",
"!. c #B1CFF3",
"~. c #A4D1F0",
"^. c #ACD3F3",
"/. c #A9D7FF",
"(. c #ABD8FF",
"). c #B5D3F6",
"_. c #B8D7F6",
"`. c #B2DAF5",
"'. c #BDDDF5",
"]. c #B1DBFF",
"[. c #B8E0FC",
"{. c #C6DDF6",
"}. c #C0DEF8",
"|. c #CBDCF8",
" X c #C3E1F6",
".X c #CBE4F7",
"XX c #C7E2F9",
"oX c #CCE5FA",
"OX c #D3E3F9",
"+X c #DBEBFA",
"@X c #E5EDFB",
"#X c #E9EEFC",
"$X c #E6F1FB",
"%X c #EBF3FC",
"&X c #F3F7FD",
"*X c #F6FAFE",
"=X c #FFFFFF",
"-X c None",
/* pixels */
"-X-X-X-X-X-X-X-X-X-X-X-X-X-X-X-X-X-X-X-X-X-X-X-X-X-X-X-X-X-X-X-X-X-X-X-X-X-X-X-X-X-X-X-X-X-X-X-X",
"-X-X-X-X-X-X-X-X-X-X-X-X-X-X-X-X-X-X-X-X-Xu u u u u u @ @ -X-X-X-X-X-X-X-X-X-X-X-X-X-X-X-X-X-X-X",
"-X-X-X-X-X-X-X-X-X-X-X-X-X-X-X-X-X-XI.B.<.` / u r 8 1 % @ @ @ -X-X-X-X-X-X-X-X-X-X-X-X-X-X-X-X-X",
"-X-X-X-X-X-X-X-X-X-X-X-X-X-X-X(.(.W.I.C.B.w.,.) C i 8 % @ o o @ @ -X-X-X-X-X-X-X-X-X-X-X-X-X-X-X",
"-X-X-X-X-X-X-X-X-X-X-X-X-XP.E.].oXoX'.~.F.j.a.a.=.| | b s $ o @ @ @ @ -X-X-X-X-X-X-X-X-X-X-X-X-X",
"-X-X-X-X-X-X-X-X-X-X-X-XB.I.[.oX'.J.d.=.=.=.=.=.*.*.&.*.*.+.v f 9 8 q u -X-X-X-X-X-X-X-X-X-X-X-X",
"-X-X-X-X-X-X-X-X-X-X-X<.C.`.K.l.s.a.a.a.a.t.=.=.=.=.&.&.&.@.&.@.O.b a u u -X-X-X-X-X-X-X-X-X-X-X",
"-X-X-X-X-X-X-X-X-X( ' B.J.d.a.s.s.s.s.s.a.a.a.=.=.=.=.*.&.&.&.+.+.$.O.' V q -X-X-X-X-X-X-X-X-X-X",
"-X-X-X-X-X-X-X-XB ( B.N.a.d.j.d.k.h.s.s.s.s.a.t.=.=.=.*.*.&.&.@.+.+. ...:.x , -X-X-X-X-X-X-X-X-X",
"-X-X-X-X-X-X-X-XB 2.d.a.d.h.l.x.x.x.h.h.s.s.f.a.a.a.=.=.=.*.&.&.+.+.-. ...$.p % -X-X-X-X-X-X-X-X",
"-X-X-X-X-X-X-Xu ' s.s.s.d.l.N.N.x.x.k.s.1.t.t.t.a.1.=.=.=.=.:.&.-.+.+.+.O...#.0 # -X-X-X-X-X-X-X",
"-X-X-X-X-X-Xq / a.a.a.d.x.x.N.N.N.h.g.A.Q.OX@X X1.1.a.=.=.:.*.:.&.&.$.$.$...$.P > + -X-X-X-X-X-X",
"-X-X-X-X-X-Xe | t.a.s.d.j.N.l.x.h.Y.@X=X=X=X=X+X1.u.1.1.:.:.=.*.:.-.-.+.-.......z + -X-X-X-X-X-X",
"-X-X-X-X-X1 b t.t.a.s.s.h.h.d.Z.OX=X=X=X=X=X=X+X1.f.1.u.>.=.=.:.*.-.-.+.$.$.-.$.#.0 X -X-X-X-X-X",
"-X-X-X-X-X9 *.t.t.a.a.j.h.s.G.%X=X=X=X=X&X.X`.J.f.1.f.>.=.>.:.:.:.:.&.-.-.$.$.$.$.Y + -X-X-X-X-X",
"-X-X-X-X% b =.=.t.a.a.s.a.F.*X=X=X=X%X~.h.1.1.1.f.f.u.>.>.>.=.:.*.:.&.-.-.-.$.-.$.$.4 -X-X-X-X-X",
"-X-X-X-X& | &.=.t.t.a.a.z.%X=X=X=X Xh.1.f.f.f.f.f.f.3.>.>.>.>.>.:.:.:.-.-.-.-.$.-.-.Y X -X-X-X-X",
"-X-X-X-Xf =.&.=.=.=.1.=.{.=X=X=X'.a.3.s.f.s.f.f.3.3.3.>.>.>.:.:.:.;.:.:.-.-.-.-.-.5.8.$ -X-X-X-X",
"-X-X-X# } &.&.&.=.=.=.Z.=X=X=XoX3.f.f.f.f.f.f.1.3.3.>.>.>.>.>.>.>.:.:.-.:.-.-.-.8.;.X.5 -X-X-X-X",
"-X-X-X& | | &.*.&.=.&.{.=X=X*Xx.1.f.3.f.1.f.>.1.3.3.>.>.>.>.:.:.:.:.9.:.-.:.-.-.-.X.D Z   -X-X-X",
"-X-X-X0 | | @.&.&.&.s.*X=X=X`.*.3.3.1.1.1.1.1.>.=.>.>.:.:.-.$.:.;.:.:.;.9.:.-.;.X.H D E O -X-X-X",
"-X-X-Xs | | | &.&.| G.=X=X=Xl.*.1.1.=.1.1.:.>.>.>.:.:.$.Q.|.S.;...-.9.:.:.;.:.$.I D S E : -X-X-X",
"-X-X-Xg | O.| @.| | ~.=X=X$X1.*.:.1.:.2.:.*.*.:.;.;.;.-._.=X=X@XQ.p.-.$.-.:.$.H D H D E y -X-X-X",
"-X-X-Xv } | | | | | '.=X=X.X@.*.*.:.:.*.*.2.@.c.#X#X#X#X&X=X=X=X=X=XOXY.i.X.H H D D H I S -X-X-X",
"-X-X-Xc } } }  .O.| [.=X=X X+.@.*.:.@.:.@.:.$.N.=X=X=X=X=X=X=X=X=X=X=X=X=X!.X.D H H H E H -X-X-X",
"-X-X-Xl n }  .} O.n '.=X=X XO.@.@.@.@.@.:.*.#.c.=X=X=X=X=X=X=X=X=X=X=X+XT.9.I H H E H H E -X-X-X",
"-X-X-Xg n n }  . .P ^.=X=X@X| $.@.$.@.@.@.$.$.1.T.T.T.L.oX=X=X=X%X`.i.U D H H H H H H E H -X-X-X",
"-X-X-Xh v n n P } P F.=X=X*Xt.O.$.$.O.$.$.$.@.$.O.#.#.P ).=XoXL.$.H H I I H H H H E E E H -X-X-X",
"-X-X-Xt v v K K P P =.*X=X=XY.P O.O.O.#.$.$.$.$.$.$.-.$.c.h.X.I U U U J U H H H E H E E -X-X-X-X",
"-X-X-X-Xc c v K K P K .X=X=X$X.._ O.O.O.O.#.O.$.$.$.%.$.X.Y Y Y Y U Y U U U ! E Q E E Q -X-X-X-X",
"-X-X-X-Xk c c K K K J c.=X=X=XQ.J P #.O.#.O.#.$.$.$.$.#.Y P X.Y Y ~ Y U U ! ! I ! Q Q Q -X-X-X-X",
"-X-X-X-Xh z c K K K K K oX=X=X=XA.I _ P O.#.O.#.X.Y Y P X.X.X.X.X.X.Y ~ Y ~ ~ ~ ~ ! ! Q -X-X-X-X",
"-X-X-X-X-Xk c c J J J F =.&X=X=X=XD.J U  .X.Y Y U P Y X.X.X.X.X.X.X.o.o.~ o.~ ~ ~ ~ ~ -X-X-X-X-X",
"-X-X-X-X-Xj A z l J J J A c.=X=X=X=X{.y.J A F I P Y Y X.X.o.X.o.X.o.o.o.4.4.4.o.{ ~ ! -X-X-X-X-X",
"-X-X-X-X-X-XA k A k J J J A Z.=X=X=X=X=X{.D.p.;.U P X.X.o.o.o...o.o...o.4.4.4.4.4.{ -X-X-X-X-X-X",
"-X-X-X-X-X-Xy A A A A J F F Z g.@X=X=X=X=X=X=XXXI Y X.Y ..o.o.5.5.5.5.8.5.5.5.5.4.~ -X-X-X-X-X-X",
"-X-X-X-X-X-X-Xj k A k A A F F Z P ~.%X=X=X=X=XoXI Y Y X.o.o.o.5.8.8.8.8.8.5.5.5.4.-X-X-X-X-X-X-X",
"-X-X-X-X-X-X-Xy Z j Z Z A A D F S M X.S.'.%X*X|.J U X.X.o.o...8.9.9.0.8.9.q.q.8.-X-X-X-X-X-X-X-X",
"-X-X-X-X-X-X-X-Xy Z Z Z Z A A S S A Z M Z U $.$.I U Y o...5.8.8.9.0.0.0.0.0.q.-X-X-X-X-X-X-X-X-X",
"-X-X-X-X-X-X-X-X-XM Z j Z Z Z S Z D Z D D D D D U Y X.o.o.9.9.9.y.0.0.0.0.e.- -X-X-X-X-X-X-X-X-X",
"-X-X-X-X-X-X-X-X-X-X2 T Z Z Z Z Z Z S S S G H U U ~ X.4.5.8.9.9.0.0.v.n.r.-X-X-X-X-X-X-X-X-X-X-X",
"-X-X-X-X-X-X-X-X-X-X-X-XT T Z S Z Z S S S H I I Y Y o.4.5.5.9.9.0.v.m.9.-X-X-X-X-X-X-X-X-X-X-X-X",
"-X-X-X-X-X-X-X-X-X-X-X-X-X6 R T D D D D G H I U ! Y o.4.5.5.8.0.n.r.= -X-X-X-X-X-X-X-X-X-X-X-X-X",
"-X-X-X-X-X-X-X-X-X-X-X-X-X-X-X6 R E R G H H H U ~ ~ 4.4.5.q.e.q.; -X-X-X-X-X-X-X-X-X-X-X-X-X-X-X",
"-X-X-X-X-X-X-X-X-X-X-X-X-X-X-X-X-X. 7 H W W ^ [ { 6.6.6.X.d -X-X-X-X-X-X-X-X-X-X-X-X-X-X-X-X-X-X",
"-X-X-X-X-X-X-X-X-X-X-X-X-X-X-X-X-X-X-X-X-X-X-X-X-X-X-X-X-X-X-X-X-X-X-X-X-X-X-X-X-X-X-X-X-X-X-X-X",
"-X-X-X-X-X-X-X-X-X-X-X-X-X-X-X-X-X-X-X-X-X-X-X-X-X-X-X-X-X-X-X-X-X-X-X-X-X-X-X-X-X-X-X-X-X-X-X-X",
"-X-X-X-X-X-X-X-X-X-X-X-X-X-X-X-X-X-X-X-X-X-X-X-X-X-X-X-X-X-X-X-X-X-X-X-X-X-X-X-X-X-X-X-X-X-X-X-X"
};
