/* XPM */
static char *xpm____[] = {
/* columns rows colors chars-per-pixel */
"48 48 197 2",
"   c #4A7C00",
".  c #468400",
"X  c #4B8500",
"o  c #4E8D01",
"O  c #528D00",
"+  c #4F9400",
"@  c #579600",
"#  c #599A01",
"$  c #5E9F09",
"%  c #5D9E10",
"&  c #609F00",
"*  c #5FA400",
"=  c #61A600",
"-  c #64AD01",
";  c #68A900",
":  c #61A109",
">  c #69AC0B",
",  c #67B701",
"<  c #6BB500",
"1  c #6ABD00",
"2  c #69B60A",
"3  c #6DBB09",
"4  c #72B200",
"5  c #7BBD02",
"6  c #75B90D",
"7  c #79BE0F",
"8  c #64A912",
"9  c #6DAA16",
"0  c #67A11E",
"q  c #6BB411",
"w  c #6DB11A",
"e  c #73BA10",
"r  c #7CBC16",
"t  c #77B91F",
"y  c #79B320",
"u  c #7CB824",
"i  c #74C503",
"p  c #7DC000",
"a  c #75CC02",
"s  c #78CC05",
"d  c #77C509",
"f  c #7AC50D",
"g  c #7ACA0B",
"h  c #75D100",
"j  c #7AD201",
"k  c #7CDA01",
"l  c #7BD30C",
"z  c #7DDA0A",
"x  c #7DC513",
"c  c #7ECC13",
"v  c #7FC31A",
"b  c #7ED212",
"n  c #80BD1F",
"m  c #81BB27",
"M  c #87BF2B",
"N  c #81C402",
"B  c #89C808",
"V  c #83DF0D",
"C  c #80CD17",
"Z  c #8BCC13",
"A  c #81C51B",
"S  c #82CC1B",
"D  c #89CD1E",
"F  c #81D316",
"G  c #80D815",
"H  c #83D41B",
"J  c #85D91C",
"K  c #93D01A",
"L  c #86E013",
"P  c #8AE21C",
"I  c #85C524",
"U  c #86CB24",
"Y  c #88CB25",
"T  c #89C52C",
"R  c #8ACA2C",
"E  c #86D422",
"W  c #89D526",
"Q  c #87DA21",
"!  c #89D925",
"~  c #8BD42B",
"^  c #8DDA2C",
"/  c #9AD622",
"(  c #9DD926",
")  c #97D52F",
"_  c #8CC534",
"`  c #8ECA33",
"'  c #8DC239",
"]  c #90CD36",
"[  c #91C73B",
"{  c #92CD3B",
"}  c #8FD433",
"|  c #8ED931",
" . c #8FD33B",
".. c #91D436",
"X. c #99D537",
"o. c #92DB34",
"O. c #94D23C",
"+. c #96DC3C",
"@. c #98DC3E",
"#. c #A7DF33",
"$. c #90E02F",
"%. c #95E631",
"&. c #99EA34",
"*. c #9CEC3B",
"=. c #95C740",
"-. c #96CC43",
";. c #98CC46",
":. c #97CD4B",
">. c #9BCD4C",
",. c #96D342",
"<. c #99D445",
"1. c #99DC44",
"2. c #97D348",
"3. c #9BD24C",
"4. c #9BD949",
"5. c #9DCD52",
"6. c #9ED252",
"7. c #9FD459",
"8. c #A3DA41",
"9. c #A5DA4E",
"0. c #A0CD56",
"q. c #A3CE5B",
"w. c #A0D255",
"e. c #A0D950",
"r. c #A3D25C",
"t. c #9AE044",
"y. c #9FEB42",
"u. c #9DE04A",
"i. c #A0E54B",
"p. c #ADE04F",
"a. c #A6EE4D",
"s. c #B1E745",
"d. c #B2E846",
"f. c #AFE15B",
"g. c #B6E659",
"h. c #BDED5C",
"j. c #BEF059",
"k. c #A7CF63",
"l. c #A9CE67",
"z. c #AACF69",
"x. c #A6D261",
"c. c #A9D266",
"v. c #ACD36C",
"b. c #ADDA6D",
"n. c #AED572",
"m. c #AEDC73",
"M. c #B1D575",
"N. c #B1DD72",
"B. c #B3D67A",
"V. c #B5D87C",
"C. c #AEE16C",
"Z. c #B8E661",
"A. c #B1E173",
"S. c #B7E57B",
"D. c #C2F262",
"F. c #C7F866",
"G. c #C9F96A",
"H. c #D1FF76",
"J. c #B6D984",
"K. c #BBDE86",
"L. c #BBE185",
"P. c #BEE289",
"I. c #C2DB95",
"U. c #C0E68D",
"Y. c #C2E98E",
"T. c #D5FF80",
"R. c #C1E493",
"E. c #C6EC96",
"W. c #C8E09F",
"Q. c #C7EC99",
"!. c #C9EA9D",
"~. c #DAFB97",
"^. c #CCE5A0",
"/. c #CBE9A2",
"(. c #D4EFA1",
"). c #D2ECAD",
"_. c #D4EDB3",
"`. c #D8EBB9",
"'. c #D6F0B5",
"]. c #DBF0B3",
"[. c #DAF1BB",
"{. c #E2FFA2",
"}. c #E3FAB5",
"|. c #DEEFC4",
" X c #DEF0C5",
".X c #E0EFC7",
"XX c #E3F4C4",
"oX c #E1F0C9",
"OX c #E3F2D3",
"+X c #EBF6DF",
"@X c #EDF6E4",
"#X c #EFF8E8",
"$X c #F2F9EA",
"%X c #F7FBF0",
"&X c #F9FCF7",
"*X c #FFFFFF",
"=X c None",
/* pixels */
"=X=X=X=X=X=X=X=X=X=X=X=X=X=X=X=X=X=X=X=X=X=X=X=X=X=X=X=X=X=X=X=X=X=X=X=X=X=X=X=X=X=X=X=X=X=X=X=X",
"=X=X=X=X=X=X=X=X=X=X=X=X=X=X=X=X=X=X=X=X=X@ @ @ @ @ @ @ @ =X=X=X=X=X=X=X=X=X=X=X=X=X=X=X=X=X=X=X",
"=X=X=X=X=X=X=X=X=X=X=X=X=X=X=X=X=X=Xj.d.#.( Z N 5 4 ; @ @ @ @ =X=X=X=X=X=X=X=X=X=X=X=X=X=X=X=X=X",
"=X=X=X=X=X=X=X=X=X=X=X=X=X=X=XH.H.G.D.h.g.p.#.) Y f 4 * @ @ @ @ @ =X=X=X=X=X=X=X=X=X=X=X=X=X=X=X",
"=X=X=X=X=X=X=X=X=X=X=X=X=Xj.G.H.{.}.].W.K.n.c.r.6.3.O.` t $ o @ @ @ =X=X=X=X=X=X=X=X=X=X=X=X=X=X",
"=X=X=X=X=X=X=X=X=X=X=X=Xd.j.~..X`.I.n.q.q.0.0.0.5.5.>.>.>.;._ u 3 < 4 n =X=X=X=X=X=X=X=X=X=X=X=X",
"=X=X=X=X=X=X=X=X=X=X=X#.h.(.W.J.v.z.c.l.x.r.q.q.0.5.>.>.:.-.-.-.O.W S p 5 =X=X=X=X=X=X=X=X=X=X=X",
"=X=X=X=X=X=X=X=X=XK ( Z.I.M.z.z.n.z.v.v.c.k.k.r.0.w.5.6.>.3.;.-.-.{ O.+.Z 4 =X=X=X=X=X=X=X=X=X=X",
"=X=X=X=X=X=X=X=XB K g.J.z.n.M.M.M.v.n.v.c.c.x.r.r.r.5.6.>.3.;.-.,.-.] { 4.Y ; =X=X=X=X=X=X=X=X=X",
"=X=X=X=X=X=X=X=XB 9.n.z.M.B.B.B.M.M.M.b.c.c.x.r.r.6.r.6.6.:.:.<.-.-.{ { ] @.A & =X=X=X=X=X=X=X=X",
"=X=X=X=X=X=X=X5 X.n.z.n.M.B.V.V.B.M.n.v.v.c.n.n.n.c.6.6.w.3.3.;.-.,.O.-.] ] ..6 @ =X=X=X=X=X=X=X",
"=X=X=X=X=X=X4 D l.z.z.n.M.V.V.V.V.M.n.v.v.x.oX*X*X|.5.6.w.>.3.<.,.,.-.{ O.O.O.~ - o =X=X=X=X=X=X",
"=X=X=X=X=X=X5 6.l.l.v.n.M.B.M.M.M.M.n.v.c.r.oX*X*XoX6.w.w.w.3.<.,.O.,.O.O.O.O.O.S + =X=X=X=X=X=X",
"=X=X=X=X=X; ` k.x.l.v.n.M.v.J.J.b.M.n.b.b.r.oX*X*X X3.e.3.3.w.{ x.x.O.,.O.O.O.O.O.2 . =X=X=X=X=X",
"=X=X=X=X=X6 5.k.k.c.c.v.z.B.$X$XV.b.v.c.c.r.oX*X*X X6.6.6.3.;.r.$X@Xr.O.O.O.O.O.O.~ + =X=X=X=X=X",
"=X=X=X=X* _ q.q.q.l.l.c.M.$X*X*X@XM.r.c.x.r.oX*X*X X3.6.6.<.r.@X*X*X#X3.O.,.O.O.O.+.q =X=X=X=X=X",
"=X=X=X=X& >.0.0.q.k.c.c.l._.*X*X*X@Xn.r.x.w.oX*X*X X:.e.;.r.@X*X*X*X/.<.,.,.O.O.O.1.~ . =X=X=X=X",
"=X=X=X=Xm 0.5.0.q.r.r.x.k.q.).*X*X*X@Xv.w.w.oX*X*XoX3.<.x.@X*X*X*X!.] <.1.,.,.@.1.O.@.$ =X=X=X=X",
"=X=X=X% M q.5.5.0.q.r.q.q.x.r.).*X*X*X@Xn.3.`.$X$X'.<.v.@X*X*X*X!.O.<.<.,.1.,.,.,.1.W , =X=X=X=X",
"=X=X=X& =.5.>.5.0.0.0.q.r.r.r.5.).*X*X*X_.3.r.r.r.e.;._.*X*X*X/.O.3.1.<.<.<.1.O.1.~ a a   =X=X=X",
"=X=X=X9 >.=.>.>.>.0.0.0.7.0.r.w.:./.*X|.6.3.3.3.3.3.3.3.[.*X!.O.<.3.1.<.1.<.2.4.} s a h O =X=X=X",
"=X=X=Xy =.-.>.>.>.>.>.>.6.5.5.6.w.>.P.w.3.6.3.3.3.3.3.<.6.L.,.<.2.1.<.1.<.1.1.} g a a h * =X=X=X",
"=X=X=Xm =.=.=.>.=.>.>.>.:.5.:.5.>.>.-.<.:.3.3.3.<.3.3.<.<.O.2.2.2.2.2.2.2.2. .l a a a h 1 =X=X=X",
"=X=X=XM =.[ =.=.=.>.OX@X@X@X@X@X@X@Xm.-.<.;.<.<.<.<.<.<.O.b.@X@X@X@X@X@X@X/.a s a h h h a =X=X=X",
"=X=X=XT [ [ [ [ { :.$X*X*X*X*X*X*X*Xm.O.-.,.,.,.,.<.,.,.O.A.*X*X*X*X*X*X*X).a a h a h h h =X=X=X",
"=X=X=XI _ ' [ [ [ -.%X*X*X*X*X*X*X*Xm.] ,.{ ,.,.O.,.,.,.O.A.*X*X*X*X*X*X*X'.a h a h a h h =X=X=X",
"=X=X=Xm _ _ ` [ [ ] V.K.K.K.K.P.K.L.3.] { O.{ O.O.O.,.,.O.e.P.P.P.L.C.C.C.1.a a h h h h a =X=X=X",
"=X=X=Xr T T ` T _ ` R T R R ` R R Y ] ` ] O.O.O.O.O.O.O.O.O.~ o.c s s s a a h h h h h h h =X=X=X",
"=X=X=X7 T T T T ` _ ` ` ` } ` ` R 6.OXb.U  . . .O.O.O.} m.OX6.b c b c b l s h h h h h h =X=X=X=X",
"=X=X=X=XM I T T T R R ` ` ` ` U ;.@X*X&Xm.` Y Y Y ~  .m.&X*X+X .b b E b b l l l h h h h =X=X=X=X",
"=X=X=X=Xn I I I T T R T R R U -.@X*X*X*XR.E m.P.P.m.U P.*X*X*X@X .b b b b b b l l l k h =X=X=X=X",
"=X=X=X=X7 A I I I Y I Y Y v -.@X*X*X*XP.U Y  X*X*X Xc b P.*X*X*X@X2.b E b b b b z l z h =X=X=X=X",
"=X=X=X=X=XA A A I I U U A -.@X*X*X*XR.S Y S _.*X*X_.c E C Y.*X*X*X@XO.b H J H b b z z =X=X=X=X=X",
"=X=X=X=X=Xf A A A A A A R #X*X*X*XP.x S S c ).*X*X_.C E E C Y.*X*X*X#X| J Q J J J J z =X=X=X=X=X",
"=X=X=X=X=X=Xr A v A A A C R.*X*XP.g c c C g ).*X*X'.c E W W H Y.*X*XE.W W ^ Q Q J b =X=X=X=X=X=X",
"=X=X=X=X=X=Xd x x x x x x d P.P.d c c c c g ).*X*X_.c W E ~ W E Q.!.Q ^ ^ ^ ! Q Q z =X=X=X=X=X=X",
"=X=X=X=X=X=X=Xf f x x x x x g g x c c c g a ).*X*X_.c E W W ^ ^ ^ ^ | o.| | $.^ J =X=X=X=X=X=X=X",
"=X=X=X=X=X=X=Xi f f d d g x g d g c g g g a '.*X*X'.F E W ^ ^ } o.+.+.+.+.o.| | =X=X=X=X=X=X=X=X",
"=X=X=X=X=X=X=X=X1 d d d d d d g d d a d s a A.).).S.F W ~ ^ o.+.+.+.1.%.%.%.%.=X=X=X=X=X=X=X=X=X",
"=X=X=X=X=X=X=X=X=Xs a i g i s i a d a a a g a a l b H W ^ | o.+.@.1.t.1.1.*.8 =X=X=X=X=X=X=X=X=X",
"=X=X=X=X=X=X=X=X=X=X; j i a i a a i a a a a l b b H E ! ^ | +.+.t.u.u.i.*.=X=X=X=X=X=X=X=X=X=X=X",
"=X=X=X=X=X=X=X=X=X=X=X=Xj s a i i a a a a a g b F H E W ^ | o.+.1.u.a.o.=X=X=X=X=X=X=X=X=X=X=X=X",
"=X=X=X=X=X=X=X=X=X=X=X=X=X- j j a a a a a h l l b H E ! ^ | o.+.y.*.0 =X=X=X=X=X=X=X=X=X=X=X=X=X",
"=X=X=X=X=X=X=X=X=X=X=X=X=X=X=X- j k j h a a g b b H J ! ^ %.&.%.=X=X=X=X=X=X=X=X=X=X=X=X=X=X=X=X",
"=X=X=X=X=X=X=X=X=X=X=X=X=X=X=X=X=XX 1 a k k z V L P P P H w =X=X=X=X=X=X=X=X=X=X=X=X=X=X=X=X=X=X",
"=X=X=X=X=X=X=X=X=X=X=X=X=X=X=X=X=X=X=X=X=X=X=X=X=X=X=X=X=X=X=X=X=X=X=X=X=X=X=X=X=X=X=X=X=X=X=X=X",
"=X=X=X=X=X=X=X=X=X=X=X=X=X=X=X=X=X=X=X=X=X=X=X=X=X=X=X=X=X=X=X=X=X=X=X=X=X=X=X=X=X=X=X=X=X=X=X=X",
"=X=X=X=X=X=X=X=X=X=X=X=X=X=X=X=X=X=X=X=X=X=X=X=X=X=X=X=X=X=X=X=X=X=X=X=X=X=X=X=X=X=X=X=X=X=X=X=X"
};
