/* XPM */
static char *xpm____[] = {
/* columns rows colors chars-per-pixel */
"48 48 229 2",
"   c #8B010F",
".  c #9E0215",
"X  c #97001A",
"o  c #A2001F",
"O  c #AC0319",
"+  c #B1041E",
"@  c #BC001C",
"#  c #AA0022",
"$  c #B00023",
"%  c #BC0024",
"&  c #B70C22",
"*  c #BB1222",
"=  c #B41E39",
"-  c #D2021F",
";  c #E6001F",
":  c #CC0124",
">  c #C80028",
",  c #C20C29",
"<  c #CD0E2B",
"1  c #D10024",
"2  c #DB0122",
"3  c #DB0029",
"4  c #D30E2A",
"5  c #DD0D2A",
"6  c #CF172F",
"7  c #D5142C",
"8  c #DD162C",
"9  c #C91730",
"0  c #C51A39",
"q  c #D71730",
"w  c #DF1533",
"e  c #DC1B36",
"r  c #DE1E39",
"t  c #E50125",
"y  c #EA0026",
"u  c #E50529",
"i  c #EC012A",
"p  c #E30B2C",
"a  c #E9092E",
"s  c #F10026",
"d  c #F2012B",
"f  c #FA002D",
"g  c #E0102F",
"h  c #E60E31",
"j  c #ED0B32",
"k  c #F10731",
"l  c #FD0134",
"z  c #F20B35",
"x  c #FC0A35",
"c  c #FF0E3F",
"v  c #E21332",
"b  c #EA1236",
"n  c #E11936",
"m  c #EF1936",
"M  c #EC153A",
"N  c #E21D39",
"B  c #EA1B3C",
"V  c #F2143C",
"C  c #FF133C",
"Z  c #F1193F",
"A  c #CF2138",
"S  c #D52635",
"D  c #D5273D",
"F  c #DD233D",
"G  c #D5283C",
"H  c #E1223D",
"J  c #EB233F",
"K  c #E9283E",
"L  c #EC1D41",
"P  c #F21D43",
"I  c #FE1C44",
"U  c #FF1E4A",
"Y  c #DE2740",
"T  c #DD2C44",
"R  c #D93647",
"E  c #DE344B",
"W  c #DD394D",
"Q  c #DE3C52",
"!  c #E32340",
"~  c #EA2344",
"^  c #E22B45",
"/  c #EB2D47",
"(  c #E62D4A",
")  c #EA2D4C",
"_  c #F12245",
"`  c #F92146",
"'  c #F12B44",
"]  c #F92945",
"[  c #F22549",
"{  c #F22B4E",
"}  c #E23846",
"|  c #E5324C",
" . c #EA314E",
".. c #E0384F",
"X. c #EA3A4A",
"o. c #F32E51",
"O. c #FF2A53",
"+. c #E63651",
"@. c #EB3452",
"#. c #E53C54",
"$. c #EA3B56",
"%. c #E63F58",
"&. c #EB3E5A",
"*. c #F33255",
"=. c #FE3156",
"-. c #FE3956",
";. c #F33658",
":. c #FF3459",
">. c #F43B5C",
",. c #FF3A5E",
"<. c #F53F60",
"1. c #FF3C60",
"2. c #DE4256",
"3. c #DF475A",
"4. c #DF4C5D",
"5. c #E44256",
"6. c #E94455",
"7. c #E5445B",
"8. c #EB425D",
"9. c #E44A5E",
"0. c #EB495C",
"q. c #F8415A",
"w. c #F44A5D",
"e. c #DF4E60",
"r. c #DF5364",
"t. c #DF5C6C",
"y. c #EC4661",
"u. c #E44D62",
"i. c #EA4B63",
"p. c #EE4F69",
"a. c #F54463",
"s. c #FF4264",
"d. c #F24866",
"f. c #F74A68",
"g. c #FE4C6C",
"h. c #E35266",
"j. c #EA5165",
"k. c #E45865",
"l. c #E55569",
"z. c #EB546A",
"x. c #E45B6C",
"c. c #EF5F6E",
"v. c #F1546D",
"b. c #FE506B",
"n. c #F75B6F",
"m. c #E55E71",
"M. c #EF5C73",
"N. c #F35672",
"B. c #FF5773",
"V. c #FF5975",
"C. c #DF6473",
"Z. c #EB616F",
"A. c #E36473",
"S. c #E36976",
"D. c #EB6A77",
"F. c #E46778",
"G. c #EC657A",
"H. c #E36C7B",
"J. c #E86C7D",
"K. c #F06075",
"L. c #FF647C",
"P. c #E5727F",
"I. c #E8727C",
"U. c #EC6F81",
"Y. c #F36C82",
"T. c #FA6E80",
"R. c #E57482",
"E. c #EC7383",
"W. c #E67986",
"Q. c #EA7A83",
"!. c #E77C89",
"~. c #E97E8B",
"^. c #F27187",
"/. c #F37388",
"(. c #FF758B",
"). c #F27C8C",
"_. c #FE7D8F",
"`. c #F07E90",
"'. c #EE828C",
"]. c #EC8690",
"[. c #EE8B90",
"{. c #F18C96",
"}. c #F68498",
"|. c #FF8798",
" X c #F48D9C",
".X c #FF8C9C",
"XX c #EC949E",
"oX c #F09197",
"OX c #F3929F",
"+X c #EB9EA7",
"@X c #F494A4",
"#X c #FF93A0",
"$X c #F39EA4",
"%X c #FF98A4",
"&X c #F09CA8",
"*X c #F3A0A4",
"=X c #F1A3AC",
"-X c #F4A9AE",
";X c #FFA8AF",
":X c #F3A7B3",
">X c #F2ADB6",
",X c #FFADB2",
"<X c #F3AFB9",
"1X c #F5B4BB",
"2X c #F8B3BD",
"3X c #F6BABE",
"4X c #F8B6C1",
"5X c #F6BDC5",
"6X c #FFBFC0",
"7X c #F7BFC8",
"8X c #F7C2C4",
"9X c #FCC0C1",
"0X c #F6C1C9",
"qX c #FAC4C9",
"wX c #F7C8CE",
"eX c #F7CCD2",
"rX c #F9CAD1",
"tX c #FAD2D5",
"yX c #FAD5DA",
"uX c #FBDBDC",
"iX c #FCDFE4",
"pX c #FCE2E4",
"aX c #FDE5E8",
"sX c #FDEBED",
"dX c #FDEEF0",
"fX c #FEF5F6",
"gX c #FEF8F7",
"hX c #FFFFFF",
"jX c None",
/* pixels */
"jXjXjXjXjXjXjXjXjXjXjXjXjXjXjXjXjXjXjXjXjXjXjXjXjXjXjXjXjXjXjXjXjXjXjXjXjXjXjXjXjXjXjXjXjXjXjXjX",
"jXjXjXjXjXjXjXjXjXjXjXjXjXjXjXjXjXjXjXjXjXjXjXjXjXjXjXjXjXjXjXjXjXjXjXjXjXjXjXjXjXjXjXjXjXjXjXjX",
"jXjXjXjXjXjXjXjXjXjXjXjXjXjXjXjXjXjXjXB.B.,.U l f u % % % jXjXjXjXjXjXjXjXjXjXjXjXjXjXjXjXjXjXjX",
"jXjXjXjXjXjXjXjXjXjXjXjXjXjXjX9X9X,X%X|.(.L.g.-.] m p : % # # % jXjXjXjXjXjXjXjXjXjXjXjXjXjXjXjX",
"jXjXjXjXjXjXjXjXjXjXjXjXjX.X;XqXuXtX0X=X].R.A.x.k.9.5.} S * O % > 3 jXjXjXjXjXjXjXjXjXjXjXjXjXjX",
"jXjXjXjXjXjXjXjXjXjXjXjX_..XqXuX5XXXP.t.t.t.t.t.k.r.u.e.u.7.R S 8 5 i l jXjXjXjXjXjXjXjXjXjXjXjX",
"jXjXjXjXjXjXjXjXjXjXjXB.|.3X+X!.S.S.A.A.m.m.t.t.l.k.e.u.u.3.7.7.#.X.' x f jXjXjXjXjXjXjXjXjXjXjX",
"jXjXjXjXjXjXjXjXjXO.s.|.XXP.C.H.H.H.H.S.A.A.m.x.l.l.h.u.u.9.7.2.5.#.%.w.` i jXjXjXjXjXjXjXjXjXjX",
"jXjXjXjXjXjXjXjXc O.T.~.C.R.W.R.R.P.I.H.F.A.A.x.x.x.l.h.9.9.9.7.7.%.#.#.j. .3 jXjXjXjXjXjXjXjXjX",
"jXjXjXjXjXjXjXjXc n.R.H.R.W.W.W.R.R.P.H.F.G.A.A.m.l.l.h.u.u.9.7.7.%.#.#.+.0.( : jXjXjXjXjXjXjXjX",
"jXjXjXjXjXjXjXf w.H.C.R.R.W.!.!.W.R.E.H.x.x.x.k.k.e.9.9.u.i.u.7.7.7.%.%.$.+.%.r > jXjXjXjXjXjXjX",
"jXjXjXjXjXjXi ] C.C.P.R.W.Q.!.!.!.J.A.I.*X8XuXuXiXtX3XoXZ.5.7.u.7.7.%.%.$.$.+.X.< # jXjXjXjXjXjX",
"jXjXjXjXjXjXj k.C.S.H.R.R.W.!.W.F.[.eXhXhXhXhXhXhXhXhXhXgX5XD.#.7.7.8.%.#.#.$.$.K % jXjXjXjXjXjX",
"jXjXjXjXjX3 X.C.A.S.S.P.R.R.P.I.8XhXhXhXhXhXhXhXhXhXhXhXhXhXhX-X7.%.7.8.&.&.$.$.@.7 o jXjXjXjXjX",
"jXjXjXjXjXv k.t.t.C.S.H.R.F.Q.pXhXhXhXhXdXeX>X&X&X<XtXgXhXhXhXhXtXj.$.7.6.$.&.#.&./ + jXjXjXjXjX",
"jXjXjXjX: ..t.t.A.A.A.S.A.E.dXhXhXhXaX=XJ.x.l.h.h.u.u.G.:XfXhXhXhXuXi.$.8.&.&.&.&.>.6 jXjXjXjXjX",
"jXjXjXjX< 4.e.t.t.m.A.A.A.iXhXhXhX0XH.x.m.m.m.m.m.z.l.u.7.G.yXhXhXhXqX%.8.8.&.&.&.&.) . jXjXjXjX",
"jXjXjXjXD r.r.t.t.t.m.k.3XhXhXhX5Xx.m.m.M.m.x.z.z.z.z.l.i.y.h.tXhXhXhX{.@.8.&.&.>.y.>.& jXjXjXjX",
"jXjXjX% W e.e.r.l.t.k.W.hXhXhXeXz.x.m.x.x.x.u.7.7.i.l.i.h.i.y.z.aXhXhXsXi.&.8.8.8.8.[ 1 jXjXjXjX",
"jXjXjX, 2.4.e.e.r.k.9.5XhXhXfXH.l.m.x.z.l.l.].*X*X].y.u.i.i.i.$.`.hXhXhX@X$.8.8.a. .i t   jXjXjX",
"jXjXjX9 3.3.4.e.u.u.m.fXhXhX1X9.x.l.l.z.h.7.eXhXhXeX7.i.i.i.i.y.&.yXhXhXyX&.0.y.@.i i i . jXjXjX",
"jXjXjXS 3.3.3.4.4.2.'.hXhXhXR.u.h.z.l.u.p.7.0XhXhX0X%.i.i.i.y.y.&.OXhXhXgXM.a.;.a i i d @ jXjXjX",
"jXjXjXD 2.Q 2.3.4.Q +XhXhXpXh.u.u.i.u.u.u.7.7XhXhX7X%.y.y.y.y.y.&.G.gXhXhX).) a u i i s - jXjXjX",
"jXjXjXT Q Q Q 2.7.Q 3XhXhXwX7.9.u.u.y.7.7.%.5XhXhX7XQ y.y.y.y.y.8.z.dXhXhX).y a i i s i y jXjXjX",
"jXjXjXT W Q Q Q 5.Q 5XhXhX5X#.7.9.7.7.7.7.$.5XhXhX5X$.7.8.8.y.y.8.y.sXhXhX/.y i i i d i i jXjXjX",
"jXjXjXD R E W Q Q E 3XhXhX0XQ 7.7.%.7.%.%.+.5XhXhX5X$.8.8.8.&.y.8.p.sXhXhXY.y i i i i i s jXjXjX",
"jXjXjXe E E E E +.T =XhXhXuX#.#.$.#.#.#.$.| 5XhXhX5X@.$.&.y.8.y.8.p.gXhXhXz.y i s i i d i jXjXjX",
"jXjXjXq T T E E ..T ~.hXhXfXh.| #.#.+.+.$.( 5XhXhX5X@.$.&.&.y.&.B M.hXhXgXo.y s i d d d i jXjXjX",
"jXjXjX4 T T T T | T u.gXhXhX].! | | +.+.+.( 7XhXhX0X@.&.&.8.@.L j 1XhXhXyXj i i d d d d jXjXjXjX",
"jXjXjXjXF Y T T T ^ ! wXhXhXpX| ^  .( | ( ( @XrXeX@X@.$.@.~ L b 0.gXhXhX}.i j j k i i d jXjXjXjX",
"jXjXjXjXe F Y ! ^ T r E.hXhXhX$Xn ( (  . .+.) ( ) @. .~ L ~ L B qXhXhXfX*.k j z z k k d jXjXjXjX",
"jXjXjXjX5 F F F H Y ! H rXhXhXhXE.n ^ ( (  . .( ~ ~ L ~ ~ L M $XhXhXhX@Xj V V V z z z d jXjXjXjX",
"jXjXjXjXjXe r r H H ! e u.gXhXhXgX'.N ~ / ~ ~ N B ~ ~ ~ M J =XhXhXhXuX[ V P V P V z z jXjXjXjXjX",
"jXjXjXjXjX5 e n n N N N h U.hXhXhXhX3X6.v p a b M b b N Z.tXhXhXhXdXd.V [ _ P P P V z jXjXjXjXjX",
"jXjXjXjXjXjXw w e n n n n h E.hXhXhXhXgX5X).j.6.0.Z.{.tXhXhXhXhXsXN.L { [ [ [ P P P jXjXjXjXjXjX",
"jXjXjXjXjXjX5 v v v v n n n p z.pXhXhXhXhXhXhXhXhXhXhXhXhXhXhXrXd._ o.o.o.o.[ [ P x jXjXjXjXjXjX",
"jXjXjXjXjXjXjX5 g g g w h v v u ~ OXsXhXhXhXhXhXhXhXhXhXhXaX}.{ { *.*.*.*.o.O.{ P jXjXjXjXjXjXjX",
"jXjXjXjXjXjXjXt p 5 p p h p h h u t ~ /.4XaXgXhXgXfXiX2X/.*._ *.;.;.>.>.;.*.o.{ jXjXjXjXjXjXjXjX",
"jXjXjXjXjXjXjXjX2 u p u p u p p a p t ; t b @.;.>.@.~ B L ) *.;.>.>.<.>.1.;.:.jXjXjXjXjXjXjXjXjX",
"jXjXjXjXjXjXjXjXjXy t u u u u u u u u u i i i i j M P [ { o.;.>.a.a.d.a.<.1.jXjXjXjXjXjXjXjXjXjX",
"jXjXjXjXjXjXjXjXjXjX: y t t t t t t y y i u j b M B ~ [ o.*.;.>.a.d.f.g.1.jXjXjXjXjXjXjXjXjXjXjX",
"jXjXjXjXjXjXjXjXjXjXjXjXs y t y t i i t i i j b M P _ [ { *.;.>.<.f.g.;.jXjXjXjXjXjXjXjXjXjXjXjX",
"jXjXjXjXjXjXjXjXjXjXjXjXjX: s s y t i i i a j j V P P [ { o.;.>.s.1.= jXjXjXjXjXjXjXjXjXjXjXjXjX",
"jXjXjXjXjXjXjXjXjXjXjXjXjXjXjX: s f s y i i i b V B P [ o.=.:.*.= jXjXjXjXjXjXjXjXjXjXjXjXjXjXjX",
"jXjXjXjXjXjXjXjXjXjXjXjXjXjXjXjXjXX 1 i f f x x C I I I L 0 jXjXjXjXjXjXjXjXjXjXjXjXjXjXjXjXjXjX",
"jXjXjXjXjXjXjXjXjXjXjXjXjXjXjXjXjXjXjXjXjXjXjXjXjXjXjXjXjXjXjXjXjXjXjXjXjXjXjXjXjXjXjXjXjXjXjXjX",
"jXjXjXjXjXjXjXjXjXjXjXjXjXjXjXjXjXjXjXjXjXjXjXjXjXjXjXjXjXjXjXjXjXjXjXjXjXjXjXjXjXjXjXjXjXjXjXjX",
"jXjXjXjXjXjXjXjXjXjXjXjXjXjXjXjXjXjXjXjXjXjXjXjXjXjXjXjXjXjXjXjXjXjXjXjXjXjXjXjXjXjXjXjXjXjXjXjX"
};
