/* XPM */
static char *xpm____[] = {
/* columns rows colors chars-per-pixel */
"48 48 191 2",
"   c #9CB0B4",
".  c #9CB6BD",
"X  c #99B8BF",
"o  c #A0A0A0",
"O  c #A2A2A2",
"+  c #A7A7A7",
"@  c #A8A8A8",
"#  c #A9A9A9",
"$  c #AAAAAA",
"%  c #AEAEAE",
"&  c #AFAFAF",
"*  c #A5B3B6",
"=  c #A4B5B9",
"-  c #A3B7BC",
";  c #A2B8BD",
":  c #A5B9BD",
">  c #B4B4B4",
",  c #B5B5B5",
"<  c #B3BCBD",
"1  c #B9B9B9",
"2  c #BABABA",
"3  c #BBBBBB",
"4  c #BCBCBC",
"5  c #BDBDBD",
"6  c #BEBEBE",
"7  c #A4BDC3",
"8  c #A5BDC3",
"9  c #A5BFC4",
"0  c #AABDC1",
"q  c #AABFC3",
"w  c #AEBFC2",
"e  c #AFBFC3",
"r  c #B4BFC1",
"t  c #B7BFC1",
"y  c #9EC4CE",
"u  c #AEC5CA",
"i  c #B4C1C4",
"p  c #B6C3C5",
"a  c #B7C3C6",
"s  c #B8C1C2",
"d  c #B8C2C4",
"f  c #B9C2C5",
"g  c #B3C4C8",
"h  c #BCC6C8",
"j  c #BFC7C8",
"k  c #BEC9CB",
"l  c #B9C9CC",
"z  c #BBCBCE",
"x  c #BCCBCE",
"c  c #BDCBCE",
"v  c #BECCCF",
"b  c #A1C6D0",
"n  c #B3CBD1",
"m  c #B8CCD1",
"M  c #BACCD0",
"N  c #C0C0C0",
"B  c #C1C1C1",
"V  c #C2C2C2",
"C  c #C3C3C3",
"Z  c #C4C4C4",
"A  c #C5C5C5",
"S  c #C6C6C6",
"D  c #C7C7C7",
"F  c #C1CBCE",
"G  c #C5CDCF",
"H  c #C4CECF",
"J  c #C8C8C8",
"K  c #C9C9C9",
"L  c #CACACA",
"P  c #CBCBCB",
"I  c #C8CDCE",
"U  c #CCCCCC",
"Y  c #CDCDCD",
"T  c #CECECE",
"R  c #CFCFCF",
"E  c #C2CED1",
"W  c #C4CFD1",
"Q  c #C7CED0",
"!  c #C5D0D3",
"~  c #C7D0D2",
"^  c #C6D2D5",
"/  c #C8D0D1",
"(  c #C9D2D4",
")  c #C8D2D5",
"_  c #CAD2D5",
"`  c #CED5D6",
"'  c #C1D4D8",
"]  c #CCD6D8",
"[  c #CDD7D8",
"{  c #CED7D8",
"}  c #CED7D9",
"|  c #CDD8DA",
" . c #D0D0D0",
".. c #D1D1D1",
"X. c #D2D2D2",
"o. c #D3D3D3",
"O. c #D4D4D4",
"+. c #D5D5D5",
"@. c #D6D6D6",
"#. c #D7D7D7",
"$. c #D2DADB",
"%. c #D5D8D9",
"&. c #D4DADB",
"*. c #D1DBDD",
"=. c #D3DBDD",
"-. c #D3DDDF",
";. c #D6DCDD",
":. c #D5DDDF",
">. c #D7DEDF",
",. c #D8D8D8",
"<. c #D9D9D9",
"1. c #DADADA",
"2. c #DBDBDB",
"3. c #D8DCDD",
"4. c #DCDCDC",
"5. c #DDDDDD",
"6. c #DEDEDE",
"7. c #DFDFDF",
"8. c #D8E0E1",
"9. c #DBE0E1",
"0. c #DAE1E2",
"q. c #DCE3E5",
"w. c #DEE3E4",
"e. c #DBE5E7",
"r. c #E0E0E0",
"t. c #E1E1E1",
"y. c #E2E2E2",
"u. c #E3E3E3",
"i. c #E0E6E7",
"p. c #E3E6E7",
"a. c #E4E4E4",
"s. c #E5E5E5",
"d. c #E6E6E6",
"f. c #E7E7E7",
"g. c #E2E8E9",
"h. c #E7E9E9",
"j. c #E6E9EA",
"k. c #E1EBED",
"l. c #E8E8E8",
"z. c #E9E9E9",
"x. c #E8EAEA",
"c. c #EAEAEA",
"v. c #EAEAEB",
"b. c #EBEBEB",
"n. c #EBEEEE",
"m. c #ECECEC",
"M. c #EDEDED",
"N. c #ECEDEE",
"B. c #EEEEEE",
"V. c #EFEFEE",
"C. c #EFEFEF",
"Z. c #F1F0EF",
"A. c #EEF0F1",
"S. c #EDF3F4",
"D. c #F0F0F0",
"F. c #F1F1F1",
"G. c #F1F2F3",
"H. c #F2F2F2",
"J. c #F3F3F3",
"K. c #F4F3F3",
"L. c #F4F4F3",
"P. c #F2F4F5",
"I. c #F4F4F4",
"U. c #F4F5F4",
"Y. c #F5F5F5",
"T. c #F4F6F6",
"R. c #F5F6F6",
"E. c #F5F7F7",
"W. c #F6F6F6",
"Q. c #F6F7F7",
"!. c #F7F7F7",
"~. c #F8F7F7",
"^. c #F6F8F8",
"/. c #F8F8F8",
"(. c #F9F8F8",
"). c #F9F9F8",
"_. c #F9F8F9",
"`. c #F8F9F9",
"'. c #F9F9F9",
"]. c #FAF9F9",
"[. c #FAFAFA",
"{. c #FBFBFB",
"}. c #FCFBFB",
"|. c #FCFCFC",
" X c #FDFCFC",
".X c #FDFDFC",
"XX c #FCFDFD",
"oX c #FDFDFD",
"OX c #FEFEFE",
"+X c #FFFFFF",
"@X c None",
/* pixels */
"@X@X@X@X@X@X@X@X@X@X@X@X@X@X@X@X@X@X@X@X@X@X@X@X@X@X@X@X@X@X@X@X@X@X@X@X@X@X@X@X@X@X@X@X@X@X@X@X",
"@X@X@X@X@X@X@X@X@X@X@X@X@X@X@X@X@X@X@X@X@X@X@X@X@X@X@X@X@X@X@X@X@X@X@X@X@X@X@X@X@X@X@X@X@X@X@X@X",
"@X@X@X@X@X@X@X@X@X@X@X@X@X@X@X@X@X@X@X@X@X@X@X@X@X@X@X@X@X@X@X@X@X@X@X@X@X@X@X@X@X@X@X@X@X@X@X@X",
"@X@X@X@X@X@X@X@X@X@X@X@X@X@X@X@X@X@X@X@X@X@X@X@X@X@X@X@X@X@X@X@X@X@X@X@X@X@X@X@X@X@X@X@X@X@X@X@X",
"@X@X@X@X@X@X@X@X@X@X@X@X@X@X@X@X@X@X@X@X@X@X@X@X@X@X@X@X@X@X@X@X@X@X@X@X@X@X@X@X@X@X@X@X@X@X@X@X",
"@X@X@X@X@X@X@X@X@X@X@X@X@X@X@X@X@X@X@X@X@X@X@X@X@X@X@X@X@X@X@X@X@X@X@X@X@X@X@X@X@X@X@X@X@X@X@X@X",
"@X@X@X@X@X@X@X@X@X@X@X@X@X@X@X@X@X@X@X@X@X@X@X@X+.+.@X@X@X@X@X@X@X@X@X@X@X@X@X@X@X@X@X@X@X@X@X@X",
"@X@X@X@X@X@X@X@X@X@X@X@X@X@X@X@X@X@X@Xo.R K K S S K K K K R o.@X@X@X@X@X@X@X@X@X@X@X@X@X@X@X@X@X",
"@X@X@X@X@X@X@X@X@X@X@X@X@X@X@X@X@X .K K R +.<.7.t.t.7.<.+.R K K o.@X@X@X@X@X@X@X@X@X@X@X@X@X@X@X",
"@X@X@X@X@X@X@X@X@X@X@X@X@X@X@X@XK U +.7.c.D.I.{.{.{.{.I.M.s.7.+.K K @X@X@X@X@X@X@X@X@X@X@X@X@X@X",
"@X@X@X@X@X@X@X@X@X@X@X@X@X@X@XS o.<.s.J.I.|.|.|.{.|.{.|.|.I.M.t.2.R S @X@X@X@X@X@X@X@X@X@X@X@X@X",
"@X@X@X@X@X@X@X@X@X@X@X@X@X@XS R 7.c.I.I.{.~.I.I.I.I.I.I.{.I.{.J.s.2.o.S @X@X@X@X@X@X@X@X@X@X@X@X",
"@X@X@X@X@X@X@X@X@X@X@X@X@XN o.7.s.J.I.I.J.J.M.M.M.M.M.M.M.I.I.I.J.a.7. .N @X@X@X@X@X@X@X@X@X@X@X",
"@X@X@X@X@X@X@X@X@X@X@X@XN R 7.s.C.J.J.C.M.M.c.M.m.M.M.M.M.M.J.I.K.M.t.2.R N @X@X@X@X@X@X@X@X@X@X",
"@X@X@X@X@X@X@X@X@X@X@XS K <.t.c.C.C.M.M.M.M.M.M.M.J.M.M.M.M.V.I &.V.s.7.+.K R @X@X@X@X@X@X@X@X@X",
"@X@X@X@X@X@X@X@X@X@X@XN o.7.s.M.M.M.M.M.M.J.J.D.J.J.J.J.K.c.<   0.M.M.t.7.o.N @X@X@X@X@X@X@X@X@X",
"@X@X@X@X@X@X@X@X@X@XS K <.t.s.M.M.M.M.J.J.J.J.I.!.I.I.I.c.t * / c.M.M.s.t.,.K K @X@X@X@X@X@X@X@X",
"@X@X@X@X@X@X@X@X@X@XN o.t.s.c.c.M.M.M.J.J.I.I.!.{.{.I.M.F s f 3.M.M.M.h.a.7.o.N @X@X@X@X@X@X@X@X",
"@X@X@X@X@X@X@X@X@X@XS <.t.s.c.M.M.M.J.J.I.{.{.{.{.{.J.W f h / K.M.M.M.c.s.t.+.S @X@X@X@X@X@X@X@X",
"@X@X@X@X@X@X@X@X@XK o.7.s.c.c.c.J.J.I.I.~.I.{.I.C.n._ r G k ~.I.J.M.M.c.c.s.7.R R @X@X@X@X@X@X@X",
"@X@X@X@X@X@X@X@X@XS +.t.c.c.M.J.J.J.I.{.{.J.i.3.G - i _ p {.{.I.I.I.J.c.c.c.7.o.K @X@X@X@X@X@X@X",
"@X@X@X@X@X@X@X@X@XK +.s.M.M.J.J.I.I.{.|.I.F k w.&.M ) : I.|.{.{.I.I.J.J.M.M.t.o.K @X@X@X@X@X@X@X",
"@X@X@X@X@X@X@X@X@XK <.c.M.J.J.{.{.{.|.}./ W |.i.p ` : ' |.|.}.{.{.I.I.J.J.M.s.+.R @X@X@X@X@X@X@X",
"@X@X@X@X@X@X@X@X@XS <.s.M.J.I.I.I.|.|.| W {.q.p ] i e.) |.|.|.|.{.{.I.J.J.M.s.o.S @X@X@X@X@X@X@X",
"@X@X@X@X@X@X@X@X@XS +.s.M.J.J.I.{.}.*.; z M 7 n 8 g.^.x |.|.|.|.{.I.I.I.J.M.s.o.S @X@X@X@X@X@X@X",
"@X@X@X@X@X@X@X@X@XS o.t.M.J.J.I.^.8.. M | 8.e.y 0.|.E *.|.|.|.{.I.{.I.I.M.M.t.R S @X@X@X@X@X@X@X",
"@X@X@X@X@X@X@X@X@XN R t.c.J.J.J.~.h.e.P.|.|.XXX |._ x {.|.|.{.{.{.I.J.J.J.c.7.K @X@X@X@X@X@X@X@X",
"@X@X@X@X@X@X@X@X@X@XN <.c.M.J.J.I.{.|.|.|.|.J.7 :.g ^.|.|.{.{.{.{.I.J.J.M.s.+.S @X@X@X@X@X@X@X@X",
"@X@X@X@X@X@X@X@X@X@X4 o.s.M.J.I.I.{.{.{.|.|.0.u u {.|.|.|.|.|.|.{.I.I.J.M.s.R 4 @X@X@X@X@X@X@X@X",
"@X@X@X@X@X@X@X@X@X@X@XK 7.c.J.I.{.{.}.|.|.|.u b J.|.|.|.|.|.|.|.{.I.I.J.c.<.S @X@X@X@X@X@X@X@X@X",
"@X@X@X@X@X@X@X@X@X@X@X4 +.s.J.I.{.|.|.|.|.|.M !.|.|.|.|.|.|.|.|.{.I.I.M.s.o.3 @X@X@X@X@X@X@X@X@X",
"@X@X@X@X@X@X@X@X@X@X@X@XS 7.M.I.I.|.|.|.|.|.|.|.|.|.|.|.|.|.|.|.{.{.I.M.<.N @X@X@X@X@X@X@X@X@X@X",
"@X@X@X@X@X@X@X@X@X@X@X@X% R t.J.{.{.{.|.|.|.|.|.|.|.|.|.|.|.|.|.{.J.M.t.K # @X@X@X@X@X@X@X@X@X@X",
"@X@X@X@X@X@X@X@X@X@X@X@X@X> o.s.I.I.{.{.|.|.|.|.|.|.|.|.|.|.|.|.{.J.t.R % @X@X@X@X@X@X@X@X@X@X@X",
"@X@X@X@X@X@X@X@X@X@X@X@X@X@X> o.t.J.I.{.|.|.|.|.|.|.|.|.|.|.|.I.J.t.R % @X@X@X@X@X@X@X@X@X@X@X@X",
"@X@X@X@X@X@X@X@X@X@X@X@X@X@X@X% R 7.M.J.{.{.|.|.|.|.|.|.{.I.J.s.7.K # @X@X@X@X@X@X@X@X@X@X@X@X@X",
"@X@X@X@X@X@X@X@X@X@X@X@X@X@X@X@Xo N o.t.c.M.M.J.I.I.J.J.c.s.7.o.3 @X@X@X@X@X@X@X@X@X@X@X@X@X@X@X",
"@X@X@X@X@X@X@X@X@X@X@X@X@X@X@X@X@X@X+ 4 R +.<.7.t.t.7.<.+.K 4 o @X@X@X@X@X@X@X@X@X@X@X@X@X@X@X@X",
"@X@X@X@X@X@X@X@X@X@X@X@X@X@X@X@X@X@X@X@X@X# > 3 4 4 4 > # @X@X@X@X@X@X@X@X@X@X@X@X@X@X@X@X@X@X@X",
"@X@X@X@X@X@X@X@X@X@X@X@X@X@X@X@X@X@X@X@X@X@X@X@X@X@X@X@X@X@X@X@X@X@X@X@X@X@X@X@X@X@X@X@X@X@X@X@X",
"@X@X@X@X@X@X@X@X@X@X@X@X@X@X@X@X@X@X@X@X@X@X@X@X@X@X@X@X@X@X@X@X@X@X@X@X@X@X@X@X@X@X@X@X@X@X@X@X",
"@X@X@X@X@X@X@X@X@X@X@X@X@X@X@X@X@X@X@X@X@X@X@X@X@X@X@X@X@X@X@X@X@X@X@X@X@X@X@X@X@X@X@X@X@X@X@X@X",
"@X@X@X@X@X@X@X@X@X@X@X@X@X@X@X@X@X@X@X@X@X@X@X@X@X@X@X@X@X@X@X@X@X@X@X@X@X@X@X@X@X@X@X@X@X@X@X@X",
"@X@X@X@X@X@X@X@X@X@X@X@X@X@X@X@X@X@X@X@X@X@X@X@X@X@X@X@X@X@X@X@X@X@X@X@X@X@X@X@X@X@X@X@X@X@X@X@X",
"@X@X@X@X@X@X@X@X@X@X@X@X@X@X@X@X@X@X@X@X@X@X@X@X@X@X@X@X@X@X@X@X@X@X@X@X@X@X@X@X@X@X@X@X@X@X@X@X",
"@X@X@X@X@X@X@X@X@X@X@X@X@X@X@X@X@X@X@X@X@X@X@X@X@X@X@X@X@X@X@X@X@X@X@X@X@X@X@X@X@X@X@X@X@X@X@X@X",
"@X@X@X@X@X@X@X@X@X@X@X@X@X@X@X@X@X@X@X@X@X@X@X@X@X@X@X@X@X@X@X@X@X@X@X@X@X@X@X@X@X@X@X@X@X@X@X@X",
"@X@X@X@X@X@X@X@X@X@X@X@X@X@X@X@X@X@X@X@X@X@X@X@X@X@X@X@X@X@X@X@X@X@X@X@X@X@X@X@X@X@X@X@X@X@X@X@X"
};
