/* XPM */
static char *xpm____[] = {
/* columns rows colors chars-per-pixel */
"48 48 46 1",
"  c #010101",
". c #0C0C0C",
"X c #131313",
"o c #1B1B1B",
"O c #242424",
"+ c #2C2C2C",
"@ c #343434",
"# c #3B3B3B",
"$ c #434343",
"% c #4C4C4C",
"& c #545454",
"* c #5C5C5C",
"= c #646464",
"- c #6B6B6B",
"; c #737373",
": c #7C7C7C",
"> c #848484",
", c #8B8B8B",
"< c #90908F",
"1 c #949494",
"2 c #979798",
"3 c #9B9B9B",
"4 c #A4A4A4",
"5 c #ABABAB",
"6 c #B4B5B5",
"7 c #B6B7B8",
"8 c #B7B8B8",
"9 c #BBBCBC",
"0 c #BFBFC0",
"q c #BFC0C0",
"w c #C2C3C3",
"e c #C7C7C8",
"r c #C7C8C8",
"t c #CBCCCC",
"y c #CFCFD0",
"u c #D4D4D4",
"i c #D7D7D8",
"p c #D7D8D8",
"a c #DBDBDC",
"s c #DEDFE0",
"d c #DFE0E1",
"f c #E3E3E4",
"g c #E7E7E8",
"h c #E7E8E8",
"j c #EAEBEB",
"k c None",
/* pixels */
"kkkkkkkkkkkkkkkkkkkkkkkkkkkkkkkkkkkkkkkkkkkkkkkk",
"kkkkkkkkkkkkkkkkkkkkkkkkkkkkkkkkkkkkkkkkkkkkkkkk",
"kkkkkkkkkkkkkkkkkkkkkkkkkkkkkkkkkkkkkkkkkkkkkkkk",
"kkkkkkkkkkkkkkkkkkkkkkkkkkkkkkkkkkkkkkkkkkkkkkkk",
"kkkkkkkkkkkkkkkkkkkkkkkkkkkkkkkkkkkkkkkkkkkkkkkk",
"kk9qertuuuapaaaaaasaaaaaaaaaauuaiiiiuuyytreewqwk",
"kk679etuaaasdfffgfgfgfffffffsfaaaaapiuytrew0978k",
"kk68qetuipaaasffffffgfffssasaaaaiiiiuuytrew9979k",
"kk68qtuadffhghhjjjjjjjjhjjhhhgfgfddddaiuyte9979k",
"kk699312222233333343333332233222222121<1315t88qk",
"kk599*$=*==-----;;;;:::::>:>>>>,,,<<1<33$ *u889k",
"kk69q**e5>,<<133333444455565778890wwwy7$  &i88qk",
"kk689=&<69<:,>,,<<1123333444555556679>X   &u770k",
"kk689=&:-,e6>>>,,,<11223334444455565&     &a77wk",
"kk68q=&;,66<:>>>,,,,<11133334444561O      &u77wk",
"kk67q=%68<;;::::>>>,,,<<111333445=        &p77ek",
"kk68q-%,--;;:::>>:>>>,,,<1122241#         &u77ek",
"kk68q-$-----5ytyq::>>>>,,,<<13;X          &p77ek",
"kk680-$-=---;:::::::>>>>,,,<2%            &p88rk",
"kk689;#=*====--;;;::::>>>>1:+             &p88rk",
"kk77q;#=**==----;;::::>>>,=X ..  .        &p77tk",
"kk78q;#****==---;;;;:::>:$..X....         &u77tk",
"kk67q;@&&***==---;;;;:>-+.XXXXX.....      &a77tk",
"kk77q:@&&***===--;;;;:&XXooXXXXXX... .    &u78yk",
"kk78q:@&&&***==----;-@XoooooooXXXX....    &i77uk",
"kk77q:@%%&&**===--;*+oOOoOooooooXXXX...   &a77uk",
"kk78q>@%%&&***==--$OOOOOOOOOOoooooXXX.... &i77uk",
"kk77q:@%%%&&***-*@o+O+O++OOOOOOooooXX.X.. &a78uk",
"kk88w>@%%%%&&*=%+O+O+++++++++OOoOoooXXX.. &a78ik",
"kk87q>+$$%%&*&#O++++++@++++++++OOOoooXXXX *u89ak",
"kk87w>+$$%%&%+O++++@@@@@@@++@++OOOOoooXXX *u88ak",
"kk97w,+$$%%#O+++@+@@@@@@@@@@@+++OOOOooXXX *p89ak",
"kk98q,+#$$@OO++@@@@@##@#@#@@@@++++OOooooX *u79dk",
"kk98q,+$#OO++@@@@##$$#$$$#$###@@@++OOOooo.=i69fk",
"kk98q>ooXoooOO++@+@@@#@@@@@@@+++OOoooXX.. *i79fk",
"kk98q6>>>>>,,,,<<11<1122321<<<,<,,>,>>>::;4y70kk",
"kkq8qtpadddfhhhhgjjjhhhhgghffffffdddsaauuur099kk",
"kk98qwruppaasdddffffffffdssssaaaaappuyttewq099kk",
"kkq6qwtupassdddffffggfffddssssaaappppuytewq099kk",
"kkrqttupsdddffhhjggggghhghhffdddsassaauuuttewekk",
"kkkkkkkkkkkkkkkkkkkkkkkkkkkkkkkkkkkkkkkkkkkkkkkk",
"kkkkkkkkkkkkkkkkkkkkkkkkkkkkkkkkkkkkkkkkkkkkkkkk",
"kkkkkkkkkkkkkkkkkkkkkkkkkkkkkkkkkkkkkkkkkkkkkkkk",
"kkkkkkkkkkkkkkkkkkkkkkkkkkkkkkkkkkkkkkkkkkkkkkkk",
"kkkkkkkkkkkkkkkkkkkkkkkkkkkkkkkkkkkkkkkkkkkkkkkk",
"kkkkkkkkkkkkkkkkkkkkkkkkkkkkkkkkkkkkkkkkkkkkkkkk",
"kkkkkkkkkkkkkkkkkkkkkkkkkkkkkkkkkkkkkkkkkkkkkkkk",
"kkkkkkkkkkkkkkkkkkkkkkkkkkkkkkkkkkkkkkkkkkkkkkkk"
};
